<svg xmlns="http://www.w3.org/2000/svg" xmlns:xlink="http://www.w3.org/1999/xlink" width="30" height="30" id="clipboard_v62" documentRef="IDI_1vd5rx8">
<g transform="matrix(1,0,0,1,0,0)" id="content"><g transform="matrix(1 0 0 1 11.0516 10.744)" class=""><text data-type="TextBox" transform="matrix(1 0 0 1 -6 -7.36587)" width="20" height="23" font-size="20" font-style="bold" font-weight="900" text-align="left" text-anchor="start" font-family="sans-serif" data-use-rich-text="true" stroke="none" fill="#000000" tabindex="1" class=""><tspan style="white-space: pre;" opacity="1" fill="#000000" fill-opacity="1" stroke="none" stroke-opacity="1" stroke-width="0" text-decoration="none" font-size="15" text-align="left" font-weight="800" font-style="normal" letter-spacing="0" word-spacing="0" width="24.337843805551532" height="23.83762680925429" x="0" dy="18" class=""><![CDATA[18]]></tspan></text><path d="M 143.0614471435547 155.77357482910156 C 143.0614471435547 163.09625244140625 137.12527465820312 169.03237915039062 129.80259704589844 169.03237915039062 C 122.47998046875 169.03237915039062 116.54378509521484 163.09625244140625 116.54378509521484 155.77357482910156 C 116.54378509521484 148.450927734375 122.47998046875 142.5147705078125 129.80259704589844 142.5147705078125 C 137.12527465820312 142.5147705078125 143.0614471435547 148.450927734375 143.0614471435547 155.77357482910156 Z " stroke="red" fill="none" stroke-width="2.3" transform="matrix(1 0 0 1 -125.37 -151.341)" class="" stroke-opacity="1"/><path d="M 60.90448760986328 115.18313598632812 L 78.60301971435547 135.01271057128906 " stroke="red" stroke-width="2.3" transform="matrix(1 0 0 1 -66.164 -120.665)" class=""/>
    </g>
    </g>
    </svg>